# xmcd
#
# Track frame offsets: 
#        150
#        14121
#        33545
#        54416
#        67281
#        89331
#        114981
#        128262
#        142725
#        161308
#        179185
#        195886
#        221896
#        238677
#        255604
#
# Disc length: 3634 seconds
#
# Revision: 0
# Processed by: cddbd v1.5.2PL0 Copyright (c) Steve Scherf et al.
# Submitted via: ExactAudioCopy v0.95b4
#
DISCID=d30e300f
DTITLE=Sugar Ray and The Bluetones - My Life, My Friends, My Music
DYEAR=2007
DGENRE=Blues
TTITLE0=Oh, Babe
TTITLE1=Little Green Talking Frog
TTITLE2=I Want To Be With Her
TTITLE3=You Better Change Your Ways
TTITLE4=Money Talking Mama
TTITLE5=Shut Your Face
TTITLE6=I Don't Know
TTITLE7=No Sorrow No More
TTITLE8=The Last Words Of A Fool
TTITLE9=Oh, Oh, Oh, Pretty Baby
TTITLE10=Do Your Remember?
TTITLE11=Think It Over Again
TTITLE12=I Like My Baby's Pudding
TTITLE13=My Last Affair
TTITLE14=Until The Real Thing Come Along
EXTD=
EXTT0=
EXTT1=
EXTT2=
EXTT3=
EXTT4=
EXTT5=
EXTT6=
EXTT7=
EXTT8=
EXTT9=
EXTT10=
EXTT11=
EXTT12=
EXTT13=
EXTT14=
PLAYORDER=
